<svg xmlns="http://www.w3.org/2000/svg" width="52.935" height="50.614" viewBox="0 0 52.935 50.614">
  <g id="Group_150" data-name="Group 150" transform="translate(0 0.001)">
    <path id="Path_110" data-name="Path 110" d="M57.761-211.046H60.5v1.765H57.761Z" transform="translate(-52.282 241.641)" fill="#16adf2"/>
    <path id="Path_111" data-name="Path 111" d="M105.848-211.046h2.735v1.765h-2.735Z" transform="translate(-95.808 241.641)" fill="#16adf2"/>
    <path id="Path_112" data-name="Path 112" d="M57.761-172.538H60.5v1.765H57.761Z" transform="translate(-52.282 206.786)" fill="#16adf2"/>
    <path id="Path_113" data-name="Path 113" d="M105.848-172.538h2.735v1.765h-2.735Z" transform="translate(-95.808 206.786)" fill="#16adf2"/>
    <path id="Path_114" data-name="Path 114" d="M57.761-134.031H60.5v1.765H57.761Z" transform="translate(-52.282 171.931)" fill="#16adf2"/>
    <path id="Path_115" data-name="Path 115" d="M105.848-134.031h2.735v1.765h-2.735Z" transform="translate(-95.808 171.931)" fill="#16adf2"/>
    <path id="Path_116" data-name="Path 116" d="M57.761-95.617H60.5v1.765H57.761Z" transform="translate(-52.282 137.161)" fill="#16adf2"/>
    <path id="Path_117" data-name="Path 117" d="M105.848-95.617h2.735v1.765h-2.735Z" transform="translate(-95.808 137.161)" fill="#16adf2"/>
    <path id="Path_118" data-name="Path 118" d="M57.761-57.109H60.5v1.765H57.761Z" transform="translate(-52.282 102.306)" fill="#16adf2"/>
    <path id="Path_119" data-name="Path 119" d="M105.848-57.109h2.735v1.765h-2.735Z" transform="translate(-95.808 102.306)" fill="#16adf2"/>
    <path id="Path_120" data-name="Path 120" d="M419.486-355.4h2.735v1.765h-2.735Z" transform="translate(-379.697 372.304)" fill="#16adf2"/>
    <path id="Path_121" data-name="Path 121" d="M467.667-355.4H470.4v1.765h-2.735Z" transform="translate(-423.308 372.304)" fill="#16adf2"/>
    <path id="Path_122" data-name="Path 122" d="M419.486-316.894h2.735v1.764h-2.735Z" transform="translate(-379.697 337.45)" fill="#16adf2"/>
    <path id="Path_123" data-name="Path 123" d="M467.667-316.894H470.4v1.764h-2.735Z" transform="translate(-423.308 337.45)" fill="#16adf2"/>
    <path id="Path_124" data-name="Path 124" d="M419.486-278.387h2.735v1.765h-2.735Z" transform="translate(-379.697 302.595)" fill="#16adf2"/>
    <path id="Path_125" data-name="Path 125" d="M467.667-278.387H470.4v1.765h-2.735Z" transform="translate(-423.308 302.595)" fill="#16adf2"/>
    <path id="Path_126" data-name="Path 126" d="M419.486-239.879h2.735v1.765h-2.735Z" transform="translate(-379.697 267.74)" fill="#16adf2"/>
    <path id="Path_127" data-name="Path 127" d="M467.667-239.879H470.4v1.765h-2.735Z" transform="translate(-423.308 267.74)" fill="#16adf2"/>
    <path id="Path_128" data-name="Path 128" d="M419.486-201.465h2.735v1.765h-2.735Z" transform="translate(-379.697 232.969)" fill="#16adf2"/>
    <path id="Path_129" data-name="Path 129" d="M467.667-201.465H470.4v1.765h-2.735Z" transform="translate(-423.308 232.969)" fill="#16adf2"/>
    <path id="Path_130" data-name="Path 130" d="M191.792-320.8h12.484v1.764H191.792Z" transform="translate(-173.6 340.985)" fill="#16adf2"/>
    <path id="Path_131" data-name="Path 131" d="M191.792-283.037h12.484v1.764H191.792Z" transform="translate(-173.6 306.804)" fill="#16adf2"/>
    <path id="Path_132" data-name="Path 132" d="M191.792-245.274h12.484v1.764H191.792Z" transform="translate(-173.6 272.623)" fill="#16adf2"/>
    <path id="Path_133" data-name="Path 133" d="M191.792-207.511h12.484v1.765H191.792Z" transform="translate(-173.6 238.442)" fill="#16adf2"/>
    <path id="Path_134" data-name="Path 134" d="M191.792-169.748h12.484v1.765H191.792Z" transform="translate(-173.6 204.261)" fill="#16adf2"/>
    <path id="Path_135" data-name="Path 135" d="M191.792-131.892h12.484v1.765H191.792Z" transform="translate(-173.6 169.995)" fill="#16adf2"/>
    <path id="Path_136" data-name="Path 136" d="M191.792-94.129h12.484v1.765H191.792Z" transform="translate(-173.6 135.814)" fill="#16adf2"/>
    <path id="Path_137" data-name="Path 137" d="M210.58-386.932H219.5v1.764H210.58Z" transform="translate(-190.606 400.844)" fill="#16adf2"/>
    <path id="Path_138" data-name="Path 138" d="M210.58-424.695H219.5v1.765H210.58Z" transform="translate(-190.606 435.025)" fill="#16adf2"/>
    <g id="Group_149" data-name="Group 149" transform="translate(0 -0.001)">
      <path id="Path_139" data-name="Path 139" d="M-309.82,0l-16.048,7.208v6.7h-1.765V26.944h-12.8V48.85h-1.853v1.765h52.934V48.85h-2.223V13.26h-14.539V48.85h-1.941V13.913h-1.764Zm-16.066,15.677h1.765V8.346l12.519-5.62V15.677h1.764l.018,33.172h-16.066Zm21.535-.653h11.01V48.85h-11.01Zm-34.319,13.684h11.019V48.85h-11.019Z" transform="translate(342.286)" fill="#1c3651"/>
    </g>
  </g>
</svg>
